<svg width="20" height="20" viewBox="0 0 20 20" fill="none" xmlns="http://www.w3.org/2000/svg">
<g id="dumbbell">
<path id="Vector" d="M3.25 5H1.75C1.33438 5 1 5.33437 1 5.75V9H0.25C0.1125 9 0 9.1125 0 9.25V10.75C0 10.8875 0.1125 11 0.25 11H1V14.25C1 14.6656 1.33438 15 1.75 15H3.25C3.66563 15 4 14.6656 4 14.25V5.75C4 5.33437 3.66563 5 3.25 5ZM19.75 9H19V5.75C19 5.33437 18.6656 5 18.25 5H16.75C16.3344 5 16 5.33437 16 5.75V14.25C16 14.6656 16.3344 15 16.75 15H18.25C18.6656 15 19 14.6656 19 14.25V11H19.75C19.8875 11 20 10.8875 20 10.75V9.25C20 9.1125 19.8875 9 19.75 9ZM14.25 3H12.75C12.3344 3 12 3.33437 12 3.75V9H8V3.75C8 3.33437 7.66563 3 7.25 3H5.75C5.33437 3 5 3.33437 5 3.75V16.25C5 16.6656 5.33437 17 5.75 17H7.25C7.66563 17 8 16.6656 8 16.25V11H12V16.25C12 16.6656 12.3344 17 12.75 17H14.25C14.6656 17 15 16.6656 15 16.25V3.75C15 3.33437 14.6656 3 14.25 3Z" fill="#EF8964"/>
</g>
</svg>
